<?xml version="1.0" standalone="no"?>
<!DOCTYPE svg PUBLIC "-//W3C//DTD SVG 20010904//EN"
 "http://www.w3.org/TR/2001/REC-SVG-20010904/DTD/svg10.dtd">
<svg version="1.0" xmlns="http://www.w3.org/2000/svg"
 width="16.000000pt" height="16.000000pt" viewBox="0 0 16.000000 16.000000"
 preserveAspectRatio="xMidYMid meet">
<metadata>
Created by potrace 1.11, written by Peter Selinger 2001-2013
</metadata>
<g transform="translate(0.000000,16.000000) scale(0.000271,-0.000271)"
fill="#000000" stroke="none">
<path d="M58868 52124 c-100 -86 -194 -166 -208 -178 -14 -11 -55 -46 -90 -76
-36 -30 -67 -57 -70 -60 -5 -5 -114 -98 -159 -135 -13 -11 -29 -24 -35 -30
-45 -40 -99 -86 -140 -120 -27 -22 -56 -47 -66 -55 -165 -142 -337 -288 -440
-374 -52 -44 -102 -87 -111 -95 -9 -9 -27 -25 -40 -36 -127 -106 -275 -231
-279 -235 -3 -3 -50 -44 -105 -90 -55 -47 -102 -87 -105 -90 -4 -4 -68 -59
-160 -136 -14 -12 -48 -41 -76 -65 -28 -24 -120 -102 -204 -174 -142 -120
-242 -205 -379 -323 -30 -26 -86 -74 -125 -106 -115 -96 -207 -174 -271 -230
-33 -29 -123 -106 -200 -171 -174 -147 -256 -217 -271 -230 -6 -5 -31 -27 -55
-47 -46 -39 -61 -52 -144 -123 -85 -72 -344 -292 -540 -460 -104 -88 -193
-164 -199 -170 -6 -5 -51 -44 -101 -85 -49 -41 -92 -77 -95 -80 -3 -3 -126
-109 -275 -235 -148 -126 -302 -256 -341 -289 -39 -34 -95 -82 -125 -107 -30
-25 -169 -144 -309 -263 -140 -120 -295 -252 -345 -294 -49 -42 -97 -83 -106
-92 -9 -8 -27 -24 -40 -34 -13 -11 -69 -58 -125 -105 -55 -47 -124 -106 -154
-131 -29 -25 -67 -57 -84 -71 -37 -32 -102 -87 -175 -149 -30 -25 -59 -50 -66
-57 -6 -6 -47 -41 -91 -78 -43 -36 -88 -74 -99 -84 -11 -9 -186 -159 -390
-332 -203 -173 -381 -324 -395 -335 -14 -12 -126 -108 -250 -213 -124 -106
-245 -209 -270 -230 -67 -57 -208 -177 -270 -230 -30 -25 -73 -62 -95 -82 -22
-19 -83 -71 -135 -114 -52 -44 -97 -82 -100 -85 -3 -3 -79 -68 -170 -145 -91
-77 -178 -152 -195 -166 -51 -44 -177 -151 -240 -204 -33 -27 -62 -52 -65 -55
-3 -3 -34 -30 -70 -60 -36 -30 -67 -57 -70 -60 -3 -3 -34 -30 -70 -60 -36 -30
-67 -57 -70 -60 -3 -3 -32 -28 -65 -55 -52 -44 -124 -105 -400 -340 -75 -64
-72 -62 -395 -337 -329 -279 -321 -273 -380 -323 -25 -22 -68 -59 -95 -82 -28
-23 -61 -51 -75 -63 -14 -12 -34 -29 -45 -38 -46 -38 -150 -127 -155 -132 -3
-3 -45 -39 -95 -80 -49 -41 -96 -82 -105 -90 -9 -8 -69 -60 -135 -115 -65 -55
-153 -129 -194 -165 -42 -36 -227 -194 -411 -350 -184 -156 -337 -287 -340
-290 -3 -3 -48 -41 -100 -85 -52 -44 -105 -89 -117 -100 l-23 -20 58 -27 c31
-15 95 -45 142 -66 47 -22 117 -54 155 -72 39 -18 117 -54 175 -80 58 -26 139
-64 180 -83 69 -33 661 -305 775 -357 28 -13 83 -39 124 -57 41 -19 156 -72
255 -118 100 -45 217 -99 261 -120 44 -20 103 -47 130 -60 28 -13 145 -67 260
-120 116 -54 219 -101 230 -105 20 -8 177 -81 183 -85 4 -3 -58 -117 -74 -136
-8 -8 -14 -18 -14 -22 0 -3 -43 -82 -96 -174 -53 -92 -106 -184 -116 -203 -16
-27 -78 -134 -163 -282 -65 -114 -165 -284 -191 -328 -35 -59 -187 -320 -239
-410 -70 -120 -239 -407 -260 -440 -26 -42 -214 -356 -229 -385 -9 -16 -114
-191 -161 -266 -5 -9 -18 -31 -29 -50 -10 -18 -72 -121 -139 -228 -66 -108
-128 -209 -137 -226 -98 -170 -813 -1319 -1123 -1805 -100 -157 -205 -320
-232 -364 -56 -88 -118 -183 -194 -299 -28 -43 -51 -81 -51 -83 0 -3 -5 -10
-11 -17 -6 -7 -51 -75 -101 -152 -50 -77 -116 -178 -146 -225 -43 -66 -388
-584 -862 -1295 -82 -123 -338 -498 -348 -510 -5 -6 -25 -35 -45 -65 -19 -30
-75 -112 -124 -182 -48 -70 -119 -171 -156 -225 -131 -188 -365 -522 -573
-816 -76 -109 -292 -411 -302 -422 -15 -19 -287 -396 -302 -420 -9 -13 -25
-36 -37 -52 -38 -49 -127 -170 -143 -193 -8 -12 -29 -41 -46 -64 -17 -22 -78
-104 -135 -181 -541 -734 -1210 -1610 -1738 -2275 -266 -335 -638 -798 -727
-905 -18 -22 -50 -60 -70 -85 -20 -25 -51 -63 -69 -85 -19 -22 -59 -71 -90
-110 -32 -38 -77 -92 -100 -120 -23 -27 -126 -151 -229 -275 -103 -124 -197
-236 -209 -250 -12 -14 -59 -70 -105 -125 -46 -55 -98 -116 -116 -135 -17 -19
-47 -55 -67 -80 -20 -25 -49 -58 -64 -75 -14 -16 -45 -52 -68 -79 -73 -86
-121 -141 -174 -202 -28 -32 -69 -79 -90 -103 -56 -66 -409 -470 -446 -512
-18 -19 -61 -68 -97 -109 -36 -41 -74 -83 -85 -95 -11 -12 -45 -50 -75 -85
-30 -34 -66 -75 -80 -89 -14 -14 -61 -66 -105 -116 -96 -108 -159 -177 -285
-315 -52 -57 -104 -113 -115 -126 -33 -36 -198 -215 -225 -243 -14 -15 -52
-56 -85 -92 -214 -230 -624 -663 -840 -887 -71 -74 -168 -173 -213 -221 -274
-283 -1084 -1088 -1416 -1406 -109 -104 -222 -212 -251 -240 -88 -85 -367
-347 -484 -455 -15 -14 -79 -73 -142 -131 -63 -58 -126 -117 -140 -130 -187
-170 -274 -249 -479 -432 -110 -99 -235 -210 -300 -267 -40 -36 -97 -85 -125
-110 -168 -148 -256 -224 -484 -419 -30 -25 -59 -51 -65 -56 -6 -6 -56 -48
-111 -95 -284 -241 -588 -492 -955 -790 -278 -225 -1061 -838 -1164 -910 -11
-8 -138 -102 -281 -209 -311 -233 -393 -293 -590 -435 -290 -208 -332 -238
-505 -358 -96 -67 -177 -124 -180 -127 -6 -8 -177 -123 -580 -393 -179 -119
-330 -222 -337 -228 -7 -5 -15 -10 -18 -10 -4 0 -39 -22 -78 -49 -67 -46 -136
-90 -365 -237 -132 -84 -133 -84 -214 -133 -40 -24 -75 -47 -78 -50 -3 -3 -16
-13 -30 -21 -14 -8 -126 -76 -250 -152 -124 -76 -234 -144 -245 -150 -11 -7
-60 -36 -110 -66 -113 -69 -467 -278 -520 -308 -22 -12 -111 -63 -199 -113
-87 -50 -160 -91 -163 -91 -3 0 -17 -8 -31 -18 -15 -11 -58 -36 -97 -57 -38
-21 -135 -74 -215 -118 -214 -118 -226 -124 -470 -254 -402 -215 -855 -445
-1275 -648 -188 -91 -404 -193 -650 -305 -72 -32 -254 -100 -460 -170 -82 -28
-159 -54 -170 -59 -32 -13 -627 -199 -657 -205 -7 -2 -20 -6 -28 -9 -8 -3 -58
-17 -110 -31 -52 -14 -151 -41 -220 -60 -109 -30 -327 -84 -525 -131 -90 -22
-238 -54 -350 -76 -55 -11 -109 -22 -120 -25 -11 -2 -31 -6 -45 -9 -14 -2 -50
-9 -80 -15 -30 -6 -64 -13 -75 -14 -11 -2 -47 -8 -80 -14 -33 -6 -76 -14 -95
-17 -68 -11 -90 -15 -122 -21 -18 -3 -44 -7 -58 -9 -14 -2 -38 -6 -55 -9 -27
-4 -72 -11 -145 -21 -14 -2 -45 -6 -70 -10 -25 -3 -56 -8 -70 -10 -14 -2 -47
-7 -75 -10 -53 -5 -120 -13 -170 -20 -16 -2 -61 -6 -100 -10 -38 -3 -77 -8
-85 -10 -8 -2 -57 -7 -108 -10 -52 -4 -102 -8 -113 -10 -17 -3 -121 -11 -274
-20 -27 -1 -97 -6 -155 -9 -372 -23 -956 -23 -1348 -1 -191 11 -260 16 -312
20 -30 2 -89 7 -130 10 -41 3 -91 8 -110 10 -19 2 -59 7 -87 10 -29 3 -77 8
-105 11 -29 3 -69 7 -88 9 -31 3 -86 10 -160 20 -69 10 -109 15 -150 20 -25 3
-56 7 -70 10 -13 2 -42 7 -65 10 -22 3 -51 8 -65 10 -14 2 -45 7 -70 10 -78
11 -408 72 -565 105 -82 18 -160 34 -173 36 -12 3 -62 14 -110 25 -48 12 -94
22 -102 24 -8 2 -37 9 -65 15 -27 6 -57 13 -65 15 -43 9 -359 93 -525 140
-927 261 -1976 665 -3072 1181 -224 106 -287 136 -443 212 -324 157 -1001 497
-1580 795 -287 147 -1131 570 -1315 659 -279 134 -450 214 -475 223 -11 4 -89
39 -155 70 -38 18 -104 47 -145 65 -41 18 -93 40 -115 50 -65 29 -335 142
-345 144 -3 1 -77 30 -165 65 -248 98 -270 106 -430 161 -131 45 -330 112
-345 115 -4 1 -81 24 -100 30 -3 1 -12 4 -20 7 -8 3 -51 16 -95 28 -44 12 -91
26 -105 31 -39 12 -381 97 -420 104 -19 3 -51 10 -70 15 -19 5 -48 11 -64 14
-16 3 -52 10 -80 15 -125 25 -375 65 -478 77 -29 3 -64 7 -77 9 -12 2 -60 7
-105 10 -44 4 -92 8 -105 10 -56 9 -301 18 -491 19 -286 0 -479 -12 -780 -48
-251 -31 -575 -113 -738 -187 -35 -16 -66 -29 -68 -29 -3 0 -38 -19 -77 -42
-288 -166 -426 -377 -425 -651 0 -50 4 -119 9 -152 10 -65 52 -211 75 -262 8
-17 14 -34 14 -37 0 -8 78 -165 108 -218 87 -154 257 -392 387 -542 157 -181
485 -515 664 -677 52 -46 99 -89 105 -94 6 -6 63 -55 126 -108 63 -54 124
-106 135 -116 11 -10 83 -68 160 -130 77 -62 149 -119 159 -128 115 -94 549
-412 826 -606 109 -76 694 -462 808 -533 274 -171 827 -504 837 -504 2 0 32
-17 66 -38 35 -22 125 -73 199 -114 74 -41 158 -88 185 -103 95 -53 370 -202
475 -257 58 -31 150 -79 205 -108 205 -108 832 -419 1030 -510 33 -15 118 -55
189 -89 70 -33 130 -61 132 -61 2 0 36 -15 76 -34 337 -155 831 -366 1173
-501 94 -37 184 -73 200 -80 43 -19 147 -59 245 -96 47 -17 114 -42 150 -56
642 -241 1413 -491 2005 -649 95 -25 479 -124 505 -129 8 -2 74 -17 145 -34
137 -32 234 -53 350 -76 39 -7 84 -16 100 -20 73 -14 302 -57 375 -70 19 -3
60 -10 90 -15 30 -5 74 -12 98 -15 24 -3 53 -7 65 -10 23 -5 37 -7 177 -25
137 -17 186 -23 290 -35 117 -13 145 -16 315 -30 479 -41 1756 -52 2325 -20
36 2 121 6 190 10 198 10 269 15 590 40 41 3 91 8 110 10 19 2 69 7 110 11 80
7 87 8 195 19 86 8 127 13 185 19 25 3 68 8 95 11 28 3 61 8 75 10 14 2 50 7
80 10 30 3 66 8 80 10 14 2 44 7 68 10 103 13 130 16 182 25 30 5 75 12 100
14 25 3 56 8 70 11 14 2 41 6 60 9 19 2 46 7 60 10 14 3 48 8 75 11 28 3 59 8
70 10 11 3 34 7 50 10 60 11 141 25 175 31 41 7 374 71 410 79 14 3 59 12 100
20 80 15 381 81 465 101 11 3 30 7 43 10 13 2 78 18 145 35 67 17 129 32 137
34 38 8 187 47 310 80 74 19 143 38 153 40 33 8 312 86 337 95 14 5 59 18 100
30 290 84 1202 380 1265 410 38 18 352 118 615 195 99 29 678 216 720 232 8 3
20 7 25 9 13 3 167 57 365 127 85 30 202 71 260 91 58 21 119 43 135 51 17 7
50 20 75 28 114 38 951 362 1025 397 11 5 99 41 195 81 275 112 927 396 1125
489 33 15 83 38 110 50 28 13 87 40 133 61 45 22 119 56 165 78 45 21 118 55
162 76 129 60 1069 529 1200 598 218 114 379 200 425 225 25 13 88 47 140 75
52 27 100 53 105 57 6 4 55 31 110 60 55 29 105 56 110 60 9 7 43 26 175 98
61 33 380 214 405 229 11 7 27 16 35 20 8 4 92 52 185 106 94 55 186 109 205
120 58 32 195 114 370 220 91 55 179 108 195 117 68 39 552 338 655 405 19 12
69 44 110 70 41 26 107 69 147 94 40 25 132 84 205 131 135 86 949 628 1113
741 245 168 964 673 990 696 6 5 75 55 155 113 139 100 480 350 555 407 6 5
91 69 190 143 99 73 182 136 185 140 4 4 136 104 309 235 14 11 69 53 121 93
52 40 109 84 125 97 87 67 560 440 600 473 11 10 40 33 65 52 25 19 47 37 50
40 3 3 37 30 75 60 39 30 81 65 95 76 14 12 117 97 230 189 113 91 214 174
225 183 11 9 45 37 75 62 30 24 66 55 80 67 14 12 97 81 185 154 88 73 165
138 171 144 6 5 62 53 124 105 118 99 543 462 595 509 17 14 84 73 150 131 66
58 125 109 131 115 6 5 42 37 80 70 138 122 360 318 394 349 19 18 80 72 135
122 55 49 109 98 121 109 11 11 60 56 109 100 126 114 124 111 226 206 112
103 192 175 228 208 14 13 82 76 151 141 69 64 144 135 168 156 24 21 74 68
111 104 118 112 365 347 411 390 348 326 1149 1117 1725 1702 258 263 384 392
740 763 64 67 295 310 367 386 23 26 97 104 163 174 66 70 131 139 144 154 13
14 54 58 90 97 81 86 249 268 322 348 30 33 83 90 117 127 35 38 73 79 84 91
19 23 140 156 188 208 14 15 54 59 90 99 78 88 91 102 155 173 48 52 144 160
182 204 10 11 50 56 89 100 87 96 363 409 459 519 94 109 101 116 125 145 12
14 36 41 53 60 18 19 55 62 82 95 28 33 57 67 65 76 17 17 20 21 185 214 66
77 122 142 125 145 3 3 55 64 115 135 60 72 112 132 115 135 3 3 39 46 80 95
42 50 85 101 97 115 11 14 40 48 63 75 23 28 52 61 64 75 11 14 41 50 66 80
24 30 60 73 80 96 19 22 43 51 53 63 45 57 252 307 257 311 3 3 35 41 70 85
36 44 89 109 118 145 79 95 82 98 147 180 66 82 73 91 95 117 8 9 120 148 248
308 128 159 238 297 245 305 7 8 37 47 67 85 30 38 60 77 67 85 72 91 251 317
343 435 156 200 162 208 359 465 95 124 180 234 189 245 64 77 827 1099 986
1320 8 11 36 49 63 85 177 239 834 1159 878 1229 6 9 13 18 16 21 28 24 934
1363 1214 1794 262 405 258 397 430 671 142 225 156 249 176 277 11 15 19 30
19 34 0 3 8 18 19 32 55 78 581 955 581 969 0 4 6 14 14 22 7 9 25 36 38 61
14 25 34 61 45 80 65 114 154 271 175 310 26 48 123 224 178 325 126 230 430
855 430 884 0 22 22 20 92 -12 40 -19 96 -44 123 -57 28 -13 82 -37 120 -55
87 -41 213 -99 285 -132 30 -14 138 -64 240 -111 242 -111 297 -136 373 -171
34 -16 123 -57 197 -91 74 -34 164 -76 200 -92 36 -17 90 -42 120 -55 30 -14
78 -36 106 -49 28 -13 56 -24 62 -24 7 0 12 -4 12 -10 0 -5 6 -10 13 -10 6 -1
64 -25 127 -55 129 -60 122 -61 134 30 4 28 13 82 21 120 14 68 28 152 40 225
3 19 8 49 12 65 3 17 7 37 8 45 1 8 12 71 24 140 28 155 28 153 40 220 6 30
13 71 16 90 3 19 8 46 10 60 8 36 12 59 20 110 4 25 9 54 11 65 8 38 14 71 64
355 28 157 53 296 55 310 3 14 30 167 60 340 31 173 58 326 60 340 3 14 7 39
10 55 3 17 10 55 16 85 6 30 13 69 15 85 5 27 19 108 30 175 3 14 7 36 10 50
6 32 10 55 18 105 4 22 10 54 13 70 3 17 7 39 8 50 2 11 10 56 18 100 9 44 19
98 22 120 3 22 14 85 25 140 10 55 21 118 24 140 4 23 9 52 11 65 6 30 12 63
20 110 5 32 18 102 60 335 8 44 17 96 20 115 3 19 15 85 26 145 10 61 22 124
24 140 3 17 10 53 15 80 5 28 12 64 15 80 3 17 18 107 35 200 17 94 32 181 34
195 3 14 10 54 17 90 6 36 13 74 14 85 2 11 11 61 20 110 9 50 18 101 20 115
2 14 7 36 10 50 5 25 32 179 41 235 2 17 7 44 11 60 3 17 7 39 9 50 3 28 42
245 59 335 8 41 17 91 20 110 3 19 10 62 16 95 6 33 13 71 15 85 12 70 25 138
29 160 3 14 7 39 10 55 2 17 6 39 8 50 3 11 8 40 12 65 4 25 9 54 11 65 2 11
13 70 24 130 11 61 26 148 35 195 8 47 18 101 21 120 3 19 14 81 24 137 11 56
22 122 25 145 3 24 8 50 11 59 2 10 6 30 9 45 3 25 23 141 40 234 6 33 12 62
24 135 6 33 13 69 15 80 2 11 7 40 11 65 4 25 9 54 11 65 3 11 16 83 29 160
14 77 27 154 30 170 3 17 10 55 15 85 6 30 12 66 15 80 3 14 7 39 10 55 5 33
51 289 61 345 3 19 8 44 9 55 2 11 8 45 14 75 6 30 13 71 16 90 3 19 17 96 30
170 14 74 27 151 30 170 3 19 8 42 10 50 2 8 6 33 10 54 8 54 43 256 60 346
17 87 20 105 40 220 19 115 29 167 64 365 17 94 33 184 36 200 3 17 7 41 9 55
3 14 12 66 21 115 9 50 23 128 31 175 9 47 17 96 19 110 5 31 23 128 29 157 2
11 8 43 11 70 4 26 11 64 15 83 5 19 11 52 14 73 10 63 17 108 22 131 9 46 35
187 63 351 12 66 23 131 26 145 3 13 7 42 11 64 3 22 7 43 9 46 1 3 6 25 9 50
6 45 11 73 21 120 3 14 8 43 10 65 3 22 8 47 11 56 2 10 6 30 9 45 3 25 13 80
51 294 2 14 15 88 29 165 14 77 27 151 30 165 14 79 83 470 91 520 3 14 9 48
14 75 5 28 12 66 15 85 3 19 8 42 10 50 2 8 7 33 10 55 3 23 8 52 11 65 2 14
7 36 9 50 10 61 46 267 50 290 3 14 8 40 11 59 3 18 8 43 10 55 2 11 7 35 9
51 12 69 25 142 30 175 3 19 9 44 12 55 3 11 7 29 8 40 1 18 12 81 21 130 2
11 7 34 9 50 3 17 16 91 29 165 33 182 40 223 42 235 1 6 3 15 4 20 1 6 2 13
2 16 0 3 3 22 8 42 4 20 7 37 5 37 -2 0 -86 -70 -187 -156z"/>
</g>
</svg>
