<?xml version="1.0" encoding="utf-8"?>
<!-- Generator: Adobe Illustrator 16.0.0, SVG Export Plug-In . SVG Version: 6.00 Build 0)  -->
<!DOCTYPE svg PUBLIC "-//W3C//DTD SVG 1.1//EN" "http://www.w3.org/Graphics/SVG/1.1/DTD/svg11.dtd">
<svg version="1.1" id="Ebene_1" xmlns="http://www.w3.org/2000/svg" xmlns:xlink="http://www.w3.org/1999/xlink" x="0px" y="0px"
	 width="634.201px" height="634.333px" viewBox="0 0 634.201 634.333" enable-background="new 0 0 634.201 634.333"
	 xml:space="preserve">
<g>
	<path fill="#3E5D87" d="M328.112,0.25v416h-40.428V221.726H41.014V416.25H0v-416h41.014v185.149h246.67V0.25H328.112z"/>
	<path fill="#FEC800" d="M327.034,416.25c0-16.222,1.432-32.58,4.295-49.047c2.864-16.467,8.47-32.814,16.826-49.047
		c8.346-16.223,20.284-31.862,35.8-46.897c15.506-15.037,36.158-29.234,61.935-42.603c13.839-7.16,28.282-14.198,43.319-21.123
		c15.035-6.914,28.874-14.678,41.527-23.27c12.643-8.592,23.024-18.258,31.146-28.998c8.11-10.74,12.172-23.271,12.172-37.59
		c0-9.062-2.036-18.012-6.086-26.851c-4.062-8.828-10.023-16.704-17.9-23.628c-7.877-6.914-17.666-12.53-29.356-16.826
		c-11.702-4.296-25.417-6.444-41.171-6.444c-15.751,0-29.836,2.271-42.243,6.802c-12.418,4.542-23.271,9.912-32.579,16.11
		c-9.308,6.209-17.308,12.777-23.986,19.69c-6.691,6.926-11.703,12.53-15.036,16.827l-32.22-35.084
		c2.863-2.864,8.345-8.111,16.468-15.752c8.111-7.629,18.728-15.271,31.863-22.912c13.123-7.63,28.517-14.432,46.183-20.406
		c17.652-5.964,37.467-8.95,59.428-8.95c21.949,0,41.528,2.986,58.713,8.95c17.184,5.974,31.739,14.208,43.676,24.702
		c11.926,10.505,20.999,22.554,27.209,36.159c6.197,13.604,9.308,27.813,9.308,42.602c0,19.578-4.296,36.516-12.888,50.836
		c-8.593,14.32-19.221,26.738-31.863,37.232c-12.652,10.505-26.133,19.455-40.453,26.851c-14.32,7.405-27.209,13.726-38.665,18.974
		c-15.282,6.691-30.194,14.208-44.75,22.553c-14.567,8.359-27.566,17.544-39.022,27.567c-11.457,10.023-20.887,21.246-28.282,33.653
		c-7.407,12.419-11.099,26.256-11.099,41.527h254.899v44.394H327.034z"/>
	<path fill="#EF774C" d="M236.365,221.262h38.668l58.592,147.65l59.177-147.65h39.257l-72.653,177.534l79.683,188.077
		L589.67,218.333h44.53l-176.36,416h-36.328l-87.301-205.656l-87.887,205.656h-35.741l-175.775-416h43.944l151.167,368.541
		l79.099-188.077L236.365,221.262z"/>
</g>
<g>
</g>
<g>
</g>
<g>
</g>
<g>
</g>
<g>
</g>
<g>
</g>
</svg>
