<?xml version="1.0" encoding="utf-8"?>
<!-- Generator: Adobe Illustrator 16.0.0, SVG Export Plug-In . SVG Version: 6.00 Build 0)  -->
<!DOCTYPE svg PUBLIC "-//W3C//DTD SVG 1.1//EN" "http://www.w3.org/Graphics/SVG/1.1/DTD/svg11.dtd">
<svg version="1.1" id="Ebene_1" xmlns="http://www.w3.org/2000/svg" xmlns:xlink="http://www.w3.org/1999/xlink" x="0px" y="0px"
	 width="1417.32px" height="1417.32px" viewBox="0 0 1417.32 1417.32" enable-background="new 0 0 1417.32 1417.32"
	 xml:space="preserve">
<path fill="#1D4B28" d="M535.075,1136.952c-245.11,98.702-358.251-89.745-492.78-82.437
	c-148.19,8.054,128.679,190.096,282.216,197.408c102.243,4.871,170.064-19.8,217.511-37.325"/>
<path id="path102" fill="#6BB533" d="M1349.238,543.869l68.085-383.456l-316.168,269.152L1349.238,543.869"/>
<linearGradient id="path92_1_" gradientUnits="userSpaceOnUse" x1="0.5684" y1="1419.168" x2="4.9551" y2="1419.168" gradientTransform="matrix(214.4236 -2.9593 -2.9593 -214.4236 4442.125 305113.75)">
	<stop  offset="0" style="stop-color:#1D4B28"/>
	<stop  offset="0.033" style="stop-color:#1D4B28"/>
	<stop  offset="0.7473" style="stop-color:#6BB533"/>
	<stop  offset="1" style="stop-color:#6BB533"/>
</linearGradient>
<path id="path92" fill="url(#path92_1_)" d="M475.905,1161.242c215.222-81.186,468.886-289.916,711.019-726.647
	c104.426-188.601,113.366,33.248,113.858,72.608c0.566,39.365-375.466,638.934-838.083,728.947
	C246.761,1278.168,475.905,1161.242,475.905,1161.242"/>
<g>
</g>
<g>
</g>
<g>
</g>
<g>
</g>
<g>
</g>
<g>
</g>
</svg>
